<svg
   version="1.1"
   viewBox="0 0 700 700"
   xmlns="http://www.w3.org/2000/svg"
   xmlns:svg="http://www.w3.org/2000/svg">
<g>
    <path
       style="fill:#d9d9d9"
       d="M 76.26786,631.04822 C 69.817468,628.72235 66.15269,626.16459 61.526168,620.75954 57.637589,616.21661 54,606.21981 54,600.07617 c 0,-5.62859 2.753264,-13.99846 6.439569,-19.57617 1.817473,-2.75 7.337037,-11.975 12.265699,-20.5 11.158784,-19.30111 40.509022,-70.14261 50.512782,-87.5 8.40002,-14.57476 12.38638,-21.4779 46.7041,-80.877 13.96723,-24.17529 23.95644,-42.49701 23.63151,-43.34376 -0.30957,-0.80672 -5.69047,-10.31207 -11.95756,-21.123 C 175.32901,316.34531 161.11132,291.75 150.00122,272.5 138.89112,253.25 126.28733,231.425 121.9928,224 117.69828,216.575 105.09536,194.75 93.986323,175.5 82.877287,156.25 70.798259,135.45225 67.144038,129.28277 55.0251,108.82218 54.498179,107.53489 54.54389,98.5 c 0.03084,-6.094576 0.577723,-9.19089 2.296135,-13 C 59.666222,79.235323 65.995066,72.634003 72.5,69.165814 L 77.5,66.5 h 299 299 l 4.57557,2.254766 c 14.84303,7.314405 22.22365,23.518998 17.71193,38.887624 -0.78432,2.67168 -8.1925,16.56128 -16.46262,30.86576 -8.27012,14.30449 -15.36633,27.04708 -15.76935,28.31688 -1.38091,4.35089 -10.99891,12.82177 -17.22546,15.17102 -7.662,2.89084 -18.65711,2.4792 -25.53548,-0.95603 C 605.79523,172.55013 599.3382,151.29658 609.01486,135.68355 610.65669,133.03451 612,130.67201 612,130.43355 612,130.1951 506.475,130 377.5,130 248.525,130 143,130.17314 143,130.38476 c 0,0.21162 3.87372,7.07412 8.60828,15.25 17.38908,30.02841 58.11819,100.57537 83.34684,144.36524 10.6152,18.425 20.51578,35.525 22.0013,38 6.22522,10.37178 8.06708,21.47743 5.22425,31.5 -0.62401,2.2 -27.46994,49.60879 -59.65762,105.35288 C 170.33537,520.59696 144,566.38446 144,566.60288 144,566.82129 249.075,567 377.5,567 c 128.425,0 233.5,-0.34554 233.5,-0.76787 0,-0.42232 -1.11063,-2.4023 -2.46806,-4.39994 -4.42073,-6.50568 -6.03334,-11.82597 -6.01125,-19.83219 0.0251,-9.09335 2.55644,-15.40077 8.77715,-21.87011 6.3947,-6.65029 13.43117,-9.55402 23.21888,-9.58172 6.92194,-0.0196 8.81419,0.3808 13.85628,2.93187 5.85675,2.96324 13.06535,9.98257 14.74689,14.35969 0.49436,1.28685 4.35589,8.26185 8.58117,15.5 17.61766,30.18006 25.41702,44.38759 26.43804,48.16027 0.5954,2.2 0.88054,7.18023 0.63364,11.06717 -0.76316,12.01465 -7.28956,21.59362 -18.444,27.07076 L 674.5,632.5 378,632.71741 C 89.662199,632.92883 81.355967,632.88288 76.26786,631.04822 Z M 8.0093231,586.14466 C 3.9785251,583.98292 0,577.19699 0,572.48364 0,570.72265 1.2526072,566.85593 2.7835716,563.89092 4.3145359,560.92591 32.664536,511.61656 65.783572,454.31457 98.902607,397.01259 126,349.79144 126,349.37869 c 0,-0.41275 -4.4526,-8.42931 -9.89466,-17.81457 C 110.66328,322.17885 97.121755,298.75 86.013059,279.5 53.516011,223.18662 50.001424,217.10231 42.978357,205 39.307908,198.675 30.104045,182.7 22.525329,169.5 14.946613,156.3 6.9268999,142.575 4.7037452,139 -4.3266606,124.47843 0.87399626,111.01465 15.517865,111.00374 c 8.667349,-0.006 10.542431,2.0165 24.729312,26.67957 6.902259,11.99918 15.800562,27.44169 19.774006,34.31669 3.973444,6.875 12.426442,21.5 18.784439,32.5 6.357997,11 15.544019,26.90978 20.413382,35.35507 12.424816,21.54925 25.035166,43.37359 42.841796,74.14493 21.58185,37.29523 20.47504,34.64319 17.12722,41.03856 -3.32704,6.35568 -126.387268,219.38457 -129.716867,224.55216 -5.188159,8.0521 -13.77751,10.67509 -21.4618299,6.55394 z M 464,481.54148 c -0.825,-0.19869 -4.875,-0.90522 -9,-1.57007 -16.35014,-2.63523 -36.63734,-10.94627 -51.99206,-21.29954 -9.79751,-6.60621 -25.20409,-21.61303 -32.28442,-31.44675 -16.68984,-23.18014 -24.98581,-48.94716 -25.02445,-77.72512 -0.0488,-36.33906 12.96389,-68.14621 38.27738,-93.56206 19.33397,-19.41216 41.39001,-31.406 68.06688,-37.01405 13.29382,-2.79465 35.92095,-3.08075 49.51429,-0.62607 10.17926,1.83817 26.75159,7.33067 35.87649,11.8904 16.95011,8.47 35.98694,24.52049 47.65245,40.17713 12.02771,16.14274 21.4589,38.81872 24.56426,59.06126 1.84242,12.01001 1.29016,35.22096 -1.095,46.02193 -5.87345,26.59728 -18.03444,49.10516 -36.51828,67.589 -18.47704,18.47704 -40.87596,30.58334 -67.589,36.5309 -6.31207,1.40537 -36.65913,2.88566 -40.44854,1.97304 z M 487.53668,374.3328 c 13.99961,-4.77014 21.40041,-22.33616 15.10567,-35.85375 C 497.81877,328.12067 489.13558,322.52697 478,322.60446 463.07792,322.7083 451.65061,334.15013 451.63795,349 c -0.0161,18.9279 17.79941,31.49986 35.89873,25.3328 z"
       id="path1" />
  </g>
</svg>
