<svg
    viewBox="0 0 430.16367 430.14392"
    xmlns="http://www.w3.org/2000/svg"
    xmlns:svg="http://www.w3.org/2000/svg">
    <g
        transform="translate(-147.95778,288.25105)">
        <path
            style="fill:#ffffff;stroke-width:0.215072"
            d="m 147.9677,124.0419 v -17.85098 h 7.52752 7.52752 V 92.103708 78.016495 h 200.01692 200.01692 v 14.087213 14.087212 h 7.52752 7.52752 v 17.85098 17.85097 H 363.03966 147.9677 Z m 422.6164,0 V 113.71844 H 363.03966 155.49522 v 10.32346 10.32345 H 363.03966 570.5841 Z M 555.52906,95.867468 V 85.544013 h -192.4894 -192.4894 v 10.323455 10.323452 h 192.4894 192.4894 z m -392.45313,-144.689662 0.0543,-119.311166 0.52641,-1.06975 c 0.67142,-1.36444 1.98606,-2.67907 3.3505,-3.3505 l 1.06975,-0.52641 29.73369,-0.056 29.7337,-0.056 v 7.20715 7.20715 H 202.4884 177.43252 v 55.5961 55.5961 h 25.05588 25.05588 v 7.204911 7.204911 H 202.4884 177.43252 v 51.832332 51.832342 h -7.20549 -7.20548 z m 167.75613,0 0.0543,-119.311166 0.52641,-1.06975 c 0.67142,-1.36444 1.98606,-2.67907 3.35049,-3.3505 l 1.06976,-0.52641 h 27.2066 27.2066 l 1.06975,0.52641 c 1.36444,0.67143 2.67906,1.98606 3.3505,3.3505 l 0.52641,1.06975 0.0543,119.311166 0.0543,119.31117 h -7.20549 -7.20549 V 18.656634 -33.175708 h -17.85084 -17.85097 v 51.832342 51.832342 h -7.20549 -7.20549 z m 50.05857,-54.359436 v -55.5961 h -17.85097 -17.85097 v 55.5961 55.5961 h 17.85097 17.85097 z m 117.64436,51.832341 V -173.18755 h 7.1454 7.14538 l 25.11423,6.721 25.11424,6.721 V -51.349289 57.046979 L 537.94,63.767978 512.82577,70.488976 h -7.14538 -7.1454 z m 31.83844,98.927015 c 9.50356,-2.546581 17.50288,-4.686289 17.77626,-4.754918 l 0.49707,-0.124742 v -94.047355 -94.047351 l -0.49707,-0.12475 c -0.27338,-0.0686 -8.2727,-2.20832 -17.77626,-4.7549 -9.50356,-2.54658 -17.31282,-4.63014 -17.35392,-4.63014 -0.0411,0 -0.0747,46.60071 -0.0747,103.557141 0,56.9564316 0.0336,103.557149 0.0747,103.557149 0.0411,0 7.85036,-2.083574 17.35392,-4.630134 z m -382.35692,-232.055916 0.0587,-3.76313 71.61837,-50.00486 71.61836,-50.00487 h 3.65655 3.65655 l 32.20729,32.20676 32.2073,32.20675 32.20728,-32.20675 32.20731,-32.20676 h 3.65654 3.65655 l 71.61838,50.00487 71.61836,50.00486 0.0587,3.76313 0.0587,3.76312 H 363.03966 147.95778 Z m 411.16493,-4.27641 c -0.41189,-0.28161 -29.25022,-20.41332 -64.08517,-44.73714 l -63.33626,-44.22514 -34.36018,34.35967 -34.36017,34.35967 -34.36018,-34.35967 -34.36017,-34.35967 -63.33626,44.22514 c -34.83495,24.32382 -63.67327,44.45553 -64.08517,44.73714 l -0.74891,0.51201 h 196.89069 196.8907 z m -364.06417,-7.98263 0.0587,-3.76306 47.42194,-31.93889 47.42194,-31.93888 h 3.65792 3.65792 l 31.93764,31.93818 31.93764,31.93819 h 1.82866 1.82865 l 31.93765,-31.93819 31.93764,-31.93818 h 3.6579 3.65793 l 47.42195,31.93888 47.42194,31.93889 0.0587,3.76306 0.0587,3.76306 H 363.03966 195.05854 Z"
        />
    </g>
</svg>